HIERARCHY
ROOT root
{
	OFFSET	0	13.1	24.9
	CHANNELS 6  Xposition Yposition Zposition Xrotation Yrotation Zrotation
	JOINT spine_1
	{
		OFFSET	0	9.99999	0
		CHANNELS 3  Xrotation Yrotation Zrotation
		JOINT spine_2
		{
			OFFSET	0	112	-10
			CHANNELS 3  Xrotation Yrotation Zrotation
			JOINT spine_3
			{
				OFFSET	0	206.5	19.3
				CHANNELS 3  Xrotation Yrotation Zrotation
				JOINT spine_4
				{
					OFFSET	0	110.4	14.6
					CHANNELS 3  Xrotation Yrotation Zrotation
					JOINT neck_1
					{
						OFFSET	0	71.8	-50.3
						CHANNELS 3  Xrotation Yrotation Zrotation
						JOINT neck_2
						{
							OFFSET	0	86.2	-25.8
							CHANNELS 3  Xrotation Yrotation Zrotation
							JOINT head_ee
							{
								OFFSET	0	179.8	-8.7
								CHANNELS 3  Xrotation Yrotation Zrotation
								End Site
								{
									OFFSET	1	0	0
								}
							}
						}
					}
					JOINT left_clavicle
					{
						OFFSET	-43.2	22.4	-70.8
						CHANNELS 3  Xrotation Yrotation Zrotation
						JOINT left_shoulder
						{
							OFFSET	-93.9	-5.79999	48.7
							CHANNELS 3  Xrotation Yrotation Zrotation
							JOINT left_elbow
							{
								OFFSET	-291.4	-30.8	15.2
								CHANNELS 3  Xrotation Yrotation Zrotation
								JOINT left_lowarm_twist
								{
									OFFSET	-110.7	-3.89999	13.6
									CHANNELS 3  Xrotation Yrotation Zrotation
									JOINT left_hand
									{
										OFFSET	-110.7	-3.89999	13.6
										CHANNELS 3  Xrotation Yrotation Zrotation
										JOINT left_ee
										{
											OFFSET	-80.8	-5.10001	12.1
											CHANNELS 3  Xrotation Yrotation Zrotation
											End Site
											{
												OFFSET	1	0	0
											}
										}
									}
								}
							}
						}
					}
					JOINT right_clavicle
					{
						OFFSET	43.2	22.4	-70.8
						CHANNELS 3  Xrotation Yrotation Zrotation
						JOINT right_shoulder
						{
							OFFSET	93.9	-5.79999	48.7
							CHANNELS 3  Xrotation Yrotation Zrotation
							JOINT right_elbow
							{
								OFFSET	291.4	-30.8	15.2
								CHANNELS 3  Xrotation Yrotation Zrotation
								JOINT right_lowarm_twist
								{
									OFFSET	110.7	-3.89999	13.6
									CHANNELS 3  Xrotation Yrotation Zrotation
									JOINT right_hand
									{
										OFFSET	110.7	-3.89999	13.6
										CHANNELS 3  Xrotation Yrotation Zrotation
										JOINT right_ee
										{
											OFFSET	80.8	-5.10001	12.1
											CHANNELS 3  Xrotation Yrotation Zrotation
											End Site
											{
												OFFSET	1	0	0
											}
										}
									}
								}
							}
						}
					}
				}
			}
		}
	}
	JOINT left_hip
	{
		OFFSET	-82.8	-127.5	0.300001
		CHANNELS 3  Xrotation Yrotation Zrotation
		JOINT left_knee
		{
			OFFSET	-28.2	-396.7	2.2
			CHANNELS 3  Xrotation Yrotation Zrotation
			JOINT left_ankle
			{
				OFFSET	-11.7	-411.3	35.4
				CHANNELS 3  Xrotation Yrotation Zrotation
				JOINT left_toes
				{
					OFFSET	0	-60	-88.6
					CHANNELS 3  Xrotation Yrotation Zrotation
					JOINT left_foot_ee
					{
						OFFSET	-22.5	-16.5	-42.2
						CHANNELS 3  Xrotation Yrotation Zrotation
						End Site
						{
							OFFSET	1	0	0
						}
					}
				}
			}
		}
	}
	JOINT right_hip
	{
		OFFSET	82.8	-127.5	0.300001
		CHANNELS 3  Xrotation Yrotation Zrotation
		JOINT right_knee
		{
			OFFSET	28.2	-396.7	2.2
			CHANNELS 3  Xrotation Yrotation Zrotation
			JOINT right_ankle
			{
				OFFSET	11.7	-411.3	35.4
				CHANNELS 3  Xrotation Yrotation Zrotation
				JOINT right_toes
				{
					OFFSET	0	-60	-88.6
					CHANNELS 3  Xrotation Yrotation Zrotation
					JOINT right_foot_ee
					{
						OFFSET	22.5	-16.5	-42.2
						CHANNELS 3  Xrotation Yrotation Zrotation
						End Site
						{
							OFFSET	1	0	0
						}
					}
				}
			}
		}
	}
}
MOTION
Frames: 5
Frame Time: 0.02
3177.02 653.055 -1669.29 -5.14317331355 46.2532919824 -2.13048198158 1.52007 1.16277 4.32005 1.53001 0.885791 4.38512 1.59955 0.0703053 4.47296 1.57248 0.77515 4.40598 3.63453 17.9821 -5.9164 5.61315 36.2601 -6.15086 -0.0 0.0 -0.0 -3.75495 23.6501 -2.39423 -23.5912 -6.47629 65.7305 0.684793 -18.7384 0.11299 3.07276 0.0980842 -0.380173 0.323846 1.90462 2.95266 -0.0 0.0 -0.0 13.7864 26.0124 -27.502 20.8104 26.9969 -79.9071 1.7167 40.3744 -0.631228 34.3717 0.0893287 4.32471 3.20172 2.72215 -20.8246 0.0 0.0 0.0 15.0423 -5.39627 -5.99284 6.70552 -0.333606 -0.973964 14.4485 16.4839 -2.04474 -31.6653 0.0 0.0 -0.0 0.0 -0.0 -27.3625 22.9044 14.7471 -3.95015 -0.142365 -0.589392 16.4127 4.87604 2.32981 -39.2612 0.0 0.0 0.0 0.0 0.0 
3177.02 653.055 -1669.29 -5.14025227857 46.2222024793 -2.13452652588 1.52007 1.16277 4.32005 1.53001 0.885791 4.38512 1.59955 0.0703053 4.47296 1.57248 0.77515 4.40598 3.63453 17.9821 -5.9164 5.61315 36.2601 -6.15086 -0.0 0.0 -0.0 -3.75495 23.6501 -2.39423 -23.5912 -6.47629 65.7305 0.684793 -18.7384 0.11299 3.07276 0.0980842 -0.380173 0.323846 1.90462 2.95266 -0.0 0.0 -0.0 13.7864 26.0124 -27.502 20.8104 26.9969 -79.9071 1.7167 40.3744 -0.631228 34.3717 0.0893287 4.32471 3.20172 2.72215 -20.8246 0.0 0.0 0.0 15.0423 -5.39627 -5.99284 6.70552 -0.333606 -0.973964 14.4485 16.4839 -2.04474 -31.6653 0.0 0.0 -0.0 0.0 -0.0 -27.3625 22.9044 14.7471 -3.95015 -0.142365 -0.589392 16.4127 4.87604 2.32981 -39.2612 0.0 0.0 0.0 0.0 0.0 
3177.02 653.055 -1669.29 -5.13470592916 46.1630287838 -2.14221195113 1.52007 1.16277 4.32005 1.53001 0.885791 4.38512 1.59955 0.0703053 4.47296 1.57248 0.77515 4.40598 3.63453 17.9821 -5.9164 5.61315 36.2601 -6.15086 -0.0 0.0 -0.0 -3.75495 23.6501 -2.39423 -23.5912 -6.47629 65.7305 0.684793 -18.7384 0.11299 3.07276 0.0980842 -0.380173 0.323846 1.90462 2.95266 -0.0 0.0 -0.0 13.7864 26.0124 -27.502 20.8104 26.9969 -79.9071 1.7167 40.3744 -0.631228 34.3717 0.0893287 4.32471 3.20172 2.72215 -20.8246 0.0 0.0 0.0 15.0423 -5.39627 -5.99284 6.70552 -0.333606 -0.973964 14.4485 16.4839 -2.04474 -31.6653 0.0 0.0 -0.0 0.0 -0.0 -27.3625 22.9044 14.7471 -3.95015 -0.142365 -0.589392 16.4127 4.87604 2.32981 -39.2612 0.0 0.0 0.0 0.0 0.0 
3177.02 653.055 -1669.29 -5.14073911287 46.2273875908 -2.13385229589 1.52007 1.16277 4.32005 1.53001 0.885791 4.38512 1.59955 0.0703053 4.47296 1.57248 0.77515 4.40598 3.63453 17.9821 -5.9164 5.61315 36.2601 -6.15086 -0.0 0.0 -0.0 -3.75495 23.6501 -2.39423 -23.5912 -6.47629 65.7305 0.684793 -18.7384 0.11299 3.07276 0.0980842 -0.380173 0.323846 1.90462 2.95266 -0.0 0.0 -0.0 13.7864 26.0124 -27.502 20.8104 26.9969 -79.9071 1.7167 40.3744 -0.631228 34.3717 0.0893287 4.32471 3.20172 2.72215 -20.8246 0.0 0.0 0.0 15.0423 -5.39627 -5.99284 6.70552 -0.333606 -0.973964 14.4485 16.4839 -2.04474 -31.6653 0.0 0.0 -0.0 0.0 -0.0 -27.3625 22.9044 14.7471 -3.95015 -0.142365 -0.589392 16.4127 4.87604 2.32981 -39.2612 0.0 0.0 0.0 0.0 0.0 
3146.34977087 679.457 -1682.32099171 -2.48650931175 46.2566621214 -3.71283997824 1.38361 1.1364 4.444 1.39419 0.851609 4.50712 1.46338 0.0033696 4.58671 1.43477 0.726959 4.52886 3.45848 17.3414 -6.97135 5.4706 36.0502 -7.3398 -0.0 0.0 -0.0 -3.36887 22.9179 -2.01722 -22.5264 -6.59822 63.5464 0.664582 -18.2224 0.106583 2.74647 0.0886395 -0.339564 0.160831 2.06085 1.93398 -0.0 0.0 -0.0 13.8334 26.7424 -27.5203 14.5597 25.8598 -79.1146 1.64905 39.2419 -0.587915 34.1125 0.0789562 4.29324 2.84562 2.50153 -18.3735 0.0 0.0 0.0 12.6801 -2.93038 -5.28952 6.98078 -0.349725 -1.01308 17.9702 15.7981 -2.50342 -33.1098 0.0 0.0 -0.0 0.0 -0.0 -28.4742 22.8884 15.4374 -6.91096 -0.222236 -1.0367 11.931 3.70664 1.71847 -39.0571 0.0 0.0 0.0 0.0 0.0 
